<svg width="25" height="25" viewBox="0 0 25 25" fill="none" xmlns="http://www.w3.org/2000/svg">
<path d="M20.4766 3.46118H18.2266V2.71118C18.2266 2.51227 18.1475 2.3215 18.0069 2.18085C17.8662 2.0402 17.6755 1.96118 17.4766 1.96118C17.2777 1.96118 17.0869 2.0402 16.9462 2.18085C16.8056 2.3215 16.7266 2.51227 16.7266 2.71118V3.46118H9.22656V2.71118C9.22656 2.51227 9.14754 2.3215 9.00689 2.18085C8.86624 2.0402 8.67547 1.96118 8.47656 1.96118C8.27765 1.96118 8.08688 2.0402 7.94623 2.18085C7.80558 2.3215 7.72656 2.51227 7.72656 2.71118V3.46118H5.47656C5.07874 3.46118 4.69721 3.61922 4.4159 3.90052C4.1346 4.18183 3.97656 4.56336 3.97656 4.96118V19.9612C3.97656 20.359 4.1346 20.7405 4.4159 21.0218C4.69721 21.3031 5.07874 21.4612 5.47656 21.4612H20.4766C20.8744 21.4612 21.2559 21.3031 21.5372 21.0218C21.8185 20.7405 21.9766 20.359 21.9766 19.9612V4.96118C21.9766 4.56336 21.8185 4.18183 21.5372 3.90052C21.2559 3.61922 20.8744 3.46118 20.4766 3.46118ZM7.72656 4.96118V5.71118C7.72656 5.91009 7.80558 6.10086 7.94623 6.24151C8.08688 6.38216 8.27765 6.46118 8.47656 6.46118C8.67547 6.46118 8.86624 6.38216 9.00689 6.24151C9.14754 6.10086 9.22656 5.91009 9.22656 5.71118V4.96118H16.7266V5.71118C16.7266 5.91009 16.8056 6.10086 16.9462 6.24151C17.0869 6.38216 17.2777 6.46118 17.4766 6.46118C17.6755 6.46118 17.8662 6.38216 18.0069 6.24151C18.1475 6.10086 18.2266 5.91009 18.2266 5.71118V4.96118H20.4766V7.96118H5.47656V4.96118H7.72656ZM20.4766 19.9612H5.47656V9.46118H20.4766V19.9612Z" fill="#101F34"/>
</svg>
