<svg width="46" height="46" viewBox="0 0 46 46" fill="none" xmlns="http://www.w3.org/2000/svg">
<path d="M38.5862 3.76979H6.65425C6.29531 3.76481 5.9389 3.83058 5.60537 3.96335C5.27185 4.09613 4.96775 4.2933 4.71043 4.54361C4.45312 4.79392 4.24764 5.09247 4.10572 5.4222C3.96379 5.75194 3.88822 6.1064 3.8833 6.46534V38.7742C3.88822 39.1332 3.96379 39.4876 4.10572 39.8174C4.24764 40.1471 4.45312 40.4457 4.71043 40.696C4.96775 40.9463 5.27185 41.1435 5.60537 41.2762C5.9389 41.409 6.29531 41.4748 6.65425 41.4698H38.5862C38.9451 41.4748 39.3015 41.409 39.635 41.2762C39.9686 41.1435 40.2727 40.9463 40.53 40.696C40.7873 40.4457 40.9928 40.1471 41.1347 39.8174C41.2766 39.4876 41.3522 39.1332 41.3571 38.7742V6.46534C41.3522 6.1064 41.2766 5.75194 41.1347 5.4222C40.9928 5.09247 40.7873 4.79392 40.53 4.54361C40.2727 4.2933 39.9686 4.09613 39.635 3.96335C39.3015 3.83058 38.9451 3.76481 38.5862 3.76979ZM15.2499 35.3247H9.59485V18.3597H15.2499V35.3247ZM12.4224 15.9846C11.6425 15.9846 10.8945 15.6748 10.343 15.1233C9.79156 14.5718 9.48175 13.8239 9.48175 13.044C9.48175 12.2641 9.79156 11.5161 10.343 10.9647C10.8945 10.4132 11.6425 10.1034 12.4224 10.1034C12.8365 10.0564 13.2559 10.0975 13.653 10.2238C14.0502 10.3502 14.4162 10.559 14.7271 10.8366C15.0379 11.1142 15.2867 11.4543 15.457 11.8347C15.6273 12.2151 15.7153 12.6272 15.7153 13.044C15.7153 13.4608 15.6273 13.8729 15.457 14.2533C15.2867 14.6337 15.0379 14.9738 14.7271 15.2514C14.4162 15.529 14.0502 15.7378 13.653 15.8642C13.2559 15.9905 12.8365 16.0316 12.4224 15.9846ZM35.6456 35.3247H29.9906V26.2201C29.9906 23.9393 29.18 22.4501 27.1254 22.4501C26.4895 22.4548 25.8703 22.6543 25.3513 23.0216C24.8322 23.389 24.4383 23.9066 24.2225 24.5048C24.0749 24.9478 24.011 25.4144 24.034 25.8808V35.3058H18.379V18.3408H24.034V20.7348C24.5477 19.8434 25.2948 19.109 26.195 18.6108C27.0951 18.1125 28.1142 17.8693 29.1423 17.9073C32.9123 17.9073 35.6456 20.3389 35.6456 25.5604V35.3247Z" fill="#F06449"/>
</svg>
