<svg width="120" height="auto" viewBox="0 0 1226 1680" fill="none" xmlns="http://www.w3.org/2000/svg">
<path d="M727.326 117.843H531.337L727.327 457.309H923.317L727.326 117.843Z" fill="#F06449"/>
<path d="M727.326 862.104H531.337L727.327 522.638H923.317L727.326 862.104Z" fill="#F06449"/>
<path d="M449.674 202.71H302.683L449.675 457.309H596.667L449.674 202.71Z" fill="#F06449"/>
<path d="M449.674 777.237H302.683L449.675 522.638H596.667L449.674 777.237Z" fill="#F06449"/>
<path d="M20.5094 1340.95V1129.15H54.1094L137.509 1259.05H120.409L203.509 1129.15H237.409V1340.95H190.309V1208.65L198.709 1210.75L144.409 1295.35H113.209L59.2094 1210.75L67.3094 1208.65V1340.95H20.5094ZM345.829 1344.25C330.029 1344.25 315.929 1341.05 303.529 1334.65C291.329 1328.05 281.729 1318.95 274.729 1307.35C267.729 1295.75 264.229 1282.65 264.229 1268.05C264.229 1253.45 267.629 1240.45 274.429 1229.05C281.429 1217.45 290.829 1208.35 302.629 1201.75C314.429 1195.15 327.729 1191.85 342.529 1191.85C356.929 1191.85 369.629 1194.95 380.629 1201.15C391.629 1207.35 400.229 1215.95 406.429 1226.95C412.829 1237.95 416.029 1250.55 416.029 1264.75C416.029 1267.35 415.829 1270.15 415.429 1273.15C415.229 1275.95 414.729 1279.25 413.929 1283.05L288.229 1283.35V1251.85L394.429 1251.55L374.629 1264.75C374.429 1256.35 373.129 1249.45 370.729 1244.05C368.329 1238.45 364.729 1234.25 359.929 1231.45C355.329 1228.45 349.629 1226.95 342.829 1226.95C335.629 1226.95 329.329 1228.65 323.929 1232.05C318.729 1235.25 314.629 1239.85 311.629 1245.85C308.829 1251.85 307.429 1259.15 307.429 1267.75C307.429 1276.35 308.929 1283.75 311.929 1289.95C315.129 1295.95 319.529 1300.65 325.129 1304.05C330.929 1307.25 337.729 1308.85 345.529 1308.85C352.729 1308.85 359.229 1307.65 365.029 1305.25C370.829 1302.65 375.929 1298.85 380.329 1293.85L405.529 1319.05C398.329 1327.45 389.629 1333.75 379.429 1337.95C369.229 1342.15 358.029 1344.25 345.829 1344.25ZM320.929 1178.65L305.929 1156.75L353.629 1112.05L378.829 1147.45L320.929 1178.65ZM455.662 1340.95V1134.85H501.562V1340.95H455.662ZM422.662 1234.15V1195.15H534.562V1234.15H422.662ZM651.086 1340.95V1257.85C651.086 1250.25 648.686 1244.15 643.886 1239.55C639.286 1234.75 633.386 1232.35 626.186 1232.35C621.186 1232.35 616.786 1233.45 612.986 1235.65C609.186 1237.65 606.186 1240.65 603.986 1244.65C601.786 1248.45 600.686 1252.85 600.686 1257.85L582.986 1249.15C582.986 1237.75 585.386 1227.75 590.186 1219.15C594.986 1210.55 601.686 1203.95 610.286 1199.35C618.886 1194.55 628.786 1192.15 639.986 1192.15C651.386 1192.15 661.386 1194.55 669.986 1199.35C678.586 1203.95 685.186 1210.45 689.786 1218.85C694.586 1227.05 696.986 1236.65 696.986 1247.65V1340.95H651.086ZM554.786 1340.95V1123.15H600.686V1340.95H554.786ZM796.666 1344.25C781.666 1344.25 768.066 1340.95 755.866 1334.35C743.866 1327.55 734.366 1318.35 727.366 1306.75C720.366 1295.15 716.866 1282.15 716.866 1267.75C716.866 1253.35 720.366 1240.45 727.366 1229.05C734.366 1217.65 743.866 1208.65 755.866 1202.05C767.866 1195.25 781.466 1191.85 796.666 1191.85C811.866 1191.85 825.466 1195.15 837.466 1201.75C849.466 1208.35 858.966 1217.45 865.966 1229.05C872.966 1240.45 876.466 1253.35 876.466 1267.75C876.466 1282.15 872.966 1295.15 865.966 1306.75C858.966 1318.35 849.466 1327.55 837.466 1334.35C825.466 1340.95 811.866 1344.25 796.666 1344.25ZM796.666 1302.55C803.266 1302.55 809.066 1301.15 814.066 1298.35C819.066 1295.35 822.866 1291.25 825.466 1286.05C828.266 1280.65 829.666 1274.55 829.666 1267.75C829.666 1260.95 828.266 1255.05 825.466 1250.05C822.666 1244.85 818.766 1240.85 813.766 1238.05C808.966 1235.05 803.266 1233.55 796.666 1233.55C790.266 1233.55 784.566 1235.05 779.566 1238.05C774.566 1240.85 770.666 1244.85 767.866 1250.05C765.066 1255.25 763.666 1261.25 763.666 1268.05C763.666 1274.65 765.066 1280.65 767.866 1286.05C770.666 1291.25 774.566 1295.35 779.566 1298.35C784.566 1301.15 790.266 1302.55 796.666 1302.55ZM961.417 1343.95C947.617 1343.95 935.317 1340.65 924.517 1334.05C913.917 1327.45 905.517 1318.45 899.317 1307.05C893.317 1295.65 890.317 1282.65 890.317 1268.05C890.317 1253.45 893.317 1240.45 899.317 1229.05C905.517 1217.65 913.917 1208.65 924.517 1202.05C935.317 1195.45 947.617 1192.15 961.417 1192.15C971.417 1192.15 980.417 1194.05 988.417 1197.85C996.617 1201.65 1003.32 1206.95 1008.52 1213.75C1013.92 1220.35 1016.92 1227.95 1017.52 1236.55V1298.05C1016.92 1306.65 1014.02 1314.45 1008.82 1321.45C1003.62 1328.25 996.917 1333.75 988.717 1337.95C980.517 1341.95 971.417 1343.95 961.417 1343.95ZM969.517 1302.55C976.117 1302.55 981.817 1301.15 986.617 1298.35C991.417 1295.35 995.217 1291.25 998.017 1286.05C1000.82 1280.85 1002.22 1274.85 1002.22 1268.05C1002.22 1261.25 1000.82 1255.35 998.017 1250.35C995.417 1245.15 991.617 1241.05 986.617 1238.05C981.817 1235.05 976.217 1233.55 969.817 1233.55C963.417 1233.55 957.717 1235.05 952.717 1238.05C947.917 1241.05 944.017 1245.15 941.017 1250.35C938.217 1255.55 936.817 1261.45 936.817 1268.05C936.817 1274.65 938.217 1280.55 941.017 1285.75C943.817 1290.95 947.717 1295.05 952.717 1298.05C957.717 1301.05 963.317 1302.55 969.517 1302.55ZM1045.42 1340.95H1000.42V1301.65L1007.32 1266.25L999.517 1230.85V1123.15H1045.42V1340.95ZM1149.74 1344.25C1133.94 1344.25 1119.84 1341.05 1107.44 1334.65C1095.24 1328.05 1085.64 1318.95 1078.64 1307.35C1071.64 1295.75 1068.14 1282.65 1068.14 1268.05C1068.14 1253.45 1071.54 1240.45 1078.34 1229.05C1085.34 1217.45 1094.74 1208.35 1106.54 1201.75C1118.34 1195.15 1131.64 1191.85 1146.44 1191.85C1160.84 1191.85 1173.54 1194.95 1184.54 1201.15C1195.54 1207.35 1204.14 1215.95 1210.34 1226.95C1216.74 1237.95 1219.94 1250.55 1219.94 1264.75C1219.94 1267.35 1219.74 1270.15 1219.34 1273.15C1219.14 1275.95 1218.64 1279.25 1217.84 1283.05L1092.14 1283.35V1251.85L1198.34 1251.55L1178.54 1264.75C1178.34 1256.35 1177.04 1249.45 1174.64 1244.05C1172.24 1238.45 1168.64 1234.25 1163.84 1231.45C1159.24 1228.45 1153.54 1226.95 1146.74 1226.95C1139.54 1226.95 1133.24 1228.65 1127.84 1232.05C1122.64 1235.25 1118.54 1239.85 1115.54 1245.85C1112.74 1251.85 1111.34 1259.15 1111.34 1267.75C1111.34 1276.35 1112.84 1283.75 1115.84 1289.95C1119.04 1295.95 1123.44 1300.65 1129.04 1304.05C1134.84 1307.25 1141.64 1308.85 1149.44 1308.85C1156.64 1308.85 1163.14 1307.65 1168.94 1305.25C1174.74 1302.65 1179.84 1298.85 1184.24 1293.85L1209.44 1319.05C1202.24 1327.45 1193.54 1333.75 1183.34 1337.95C1173.14 1342.15 1161.94 1344.25 1149.74 1344.25ZM256.507 1644.25C240.707 1644.25 226.007 1641.55 212.407 1636.15C199.007 1630.55 187.207 1622.75 177.007 1612.75C167.007 1602.75 159.207 1591.15 153.607 1577.95C148.007 1564.55 145.207 1550.15 145.207 1534.75C145.207 1519.35 148.007 1505.05 153.607 1491.85C159.207 1478.45 167.007 1466.85 177.007 1457.05C187.007 1447.25 198.707 1439.65 212.107 1434.25C225.707 1428.65 240.407 1425.85 256.207 1425.85C273.007 1425.85 287.907 1428.55 300.907 1433.95C314.107 1439.35 325.607 1446.75 335.407 1456.15L303.907 1487.95C298.307 1481.95 291.507 1477.25 283.507 1473.85C275.707 1470.45 266.607 1468.75 256.207 1468.75C247.007 1468.75 238.507 1470.35 230.707 1473.55C223.107 1476.55 216.507 1480.95 210.907 1486.75C205.507 1492.55 201.207 1499.55 198.007 1507.75C195.007 1515.95 193.507 1524.95 193.507 1534.75C193.507 1544.75 195.007 1553.85 198.007 1562.05C201.207 1570.25 205.507 1577.25 210.907 1583.05C216.507 1588.85 223.107 1593.35 230.707 1596.55C238.507 1599.75 247.007 1601.35 256.207 1601.35C267.007 1601.35 276.407 1599.65 284.407 1596.25C292.407 1592.85 299.307 1588.15 305.107 1582.15L336.907 1613.95C326.707 1623.35 315.007 1630.75 301.807 1636.15C288.807 1641.55 273.707 1644.25 256.507 1644.25ZM358.643 1640.95V1495.15H404.543V1640.95H358.643ZM404.543 1560.85L385.343 1545.85C389.143 1528.85 395.543 1515.65 404.543 1506.25C413.543 1496.85 426.043 1492.15 442.043 1492.15C449.043 1492.15 455.143 1493.25 460.343 1495.45C465.743 1497.45 470.443 1500.65 474.443 1505.05L447.143 1539.55C445.143 1537.35 442.643 1535.65 439.643 1534.45C436.643 1533.25 433.243 1532.65 429.443 1532.65C421.843 1532.65 415.743 1535.05 411.143 1539.85C406.743 1544.45 404.543 1551.45 404.543 1560.85ZM554.569 1644.25C538.769 1644.25 524.669 1641.05 512.269 1634.65C500.069 1628.05 490.469 1618.95 483.469 1607.35C476.469 1595.75 472.969 1582.65 472.969 1568.05C472.969 1553.45 476.369 1540.45 483.169 1529.05C490.169 1517.45 499.569 1508.35 511.369 1501.75C523.169 1495.15 536.469 1491.85 551.269 1491.85C565.669 1491.85 578.369 1494.95 589.369 1501.15C600.369 1507.35 608.969 1515.95 615.169 1526.95C621.569 1537.95 624.769 1550.55 624.769 1564.75C624.769 1567.35 624.569 1570.15 624.169 1573.15C623.969 1575.95 623.469 1579.25 622.669 1583.05L496.969 1583.35V1551.85L603.169 1551.55L583.369 1564.75C583.169 1556.35 581.869 1549.45 579.469 1544.05C577.069 1538.45 573.469 1534.25 568.669 1531.45C564.069 1528.45 558.369 1526.95 551.569 1526.95C544.369 1526.95 538.069 1528.65 532.669 1532.05C527.469 1535.25 523.369 1539.85 520.369 1545.85C517.569 1551.85 516.169 1559.15 516.169 1567.75C516.169 1576.35 517.669 1583.75 520.669 1589.95C523.869 1595.95 528.269 1600.65 533.869 1604.05C539.669 1607.25 546.469 1608.85 554.269 1608.85C561.469 1608.85 567.969 1607.65 573.769 1605.25C579.569 1602.65 584.669 1598.85 589.069 1593.85L614.269 1619.05C607.069 1627.45 598.369 1633.75 588.169 1637.95C577.969 1642.15 566.769 1644.25 554.569 1644.25ZM707.825 1643.95C694.425 1643.95 682.425 1640.65 671.825 1634.05C661.425 1627.45 653.125 1618.45 646.925 1607.05C640.925 1595.65 637.925 1582.65 637.925 1568.05C637.925 1553.45 640.925 1540.45 646.925 1529.05C653.125 1517.65 661.425 1508.65 671.825 1502.05C682.425 1495.45 694.425 1492.15 707.825 1492.15C717.625 1492.15 726.425 1494.05 734.225 1497.85C742.225 1501.65 748.725 1506.95 753.725 1513.75C758.725 1520.35 761.525 1527.95 762.125 1536.55V1599.55C761.525 1608.15 758.725 1615.85 753.725 1622.65C748.925 1629.25 742.525 1634.45 734.525 1638.25C726.525 1642.05 717.625 1643.95 707.825 1643.95ZM717.125 1602.55C726.925 1602.55 734.825 1599.35 740.825 1592.95C746.825 1586.35 749.825 1578.05 749.825 1568.05C749.825 1561.25 748.425 1555.25 745.625 1550.05C743.025 1544.85 739.225 1540.85 734.225 1538.05C729.425 1535.05 723.825 1533.55 717.425 1533.55C711.025 1533.55 705.325 1535.05 700.325 1538.05C695.525 1540.85 691.625 1544.85 688.625 1550.05C685.825 1555.25 684.425 1561.25 684.425 1568.05C684.425 1574.65 685.825 1580.55 688.625 1585.75C691.425 1590.95 695.325 1595.05 700.325 1598.05C705.325 1601.05 710.925 1602.55 717.125 1602.55ZM748.025 1640.95V1601.65L754.925 1566.25L748.025 1530.85V1495.15H793.025V1640.95H748.025ZM846.043 1640.95V1434.85H891.943V1640.95H846.043ZM813.043 1534.15V1495.15H924.943V1534.15H813.043ZM1014.24 1644.25C998.437 1644.25 984.337 1641.05 971.937 1634.65C959.737 1628.05 950.137 1618.95 943.137 1607.35C936.137 1595.75 932.637 1582.65 932.637 1568.05C932.637 1553.45 936.037 1540.45 942.837 1529.05C949.837 1517.45 959.237 1508.35 971.037 1501.75C982.837 1495.15 996.137 1491.85 1010.94 1491.85C1025.34 1491.85 1038.04 1494.95 1049.04 1501.15C1060.04 1507.35 1068.64 1515.95 1074.84 1526.95C1081.24 1537.95 1084.44 1550.55 1084.44 1564.75C1084.44 1567.35 1084.24 1570.15 1083.84 1573.15C1083.64 1575.95 1083.14 1579.25 1082.34 1583.05L956.637 1583.35V1551.85L1062.84 1551.55L1043.04 1564.75C1042.84 1556.35 1041.54 1549.45 1039.14 1544.05C1036.74 1538.45 1033.14 1534.25 1028.34 1531.45C1023.74 1528.45 1018.04 1526.95 1011.24 1526.95C1004.04 1526.95 997.737 1528.65 992.337 1532.05C987.137 1535.25 983.037 1539.85 980.037 1545.85C977.237 1551.85 975.837 1559.15 975.837 1567.75C975.837 1576.35 977.337 1583.75 980.337 1589.95C983.537 1595.95 987.937 1600.65 993.537 1604.05C999.337 1607.25 1006.14 1608.85 1013.94 1608.85C1021.14 1608.85 1027.64 1607.65 1033.44 1605.25C1039.24 1602.65 1044.34 1598.85 1048.74 1593.85L1073.94 1619.05C1066.74 1627.45 1058.04 1633.75 1047.84 1637.95C1037.64 1642.15 1026.44 1644.25 1014.24 1644.25Z" fill="white"/>
</svg>
