<svg width="46" height="46" viewBox="0 0 46 46" fill="none" xmlns="http://www.w3.org/2000/svg">
<g clip-path="url(#clip0_533_2602)">
<path d="M22.7642 5.65234H23.0159C25.3401 5.66083 37.1166 5.74565 40.2919 6.59956C41.2518 6.86016 42.1265 7.36813 42.8286 8.07271C43.5307 8.77728 44.0356 9.65378 44.2928 10.6146C44.5784 11.6891 44.7791 13.1113 44.9148 14.5788L44.9431 14.8728L45.0053 15.608L45.0279 15.902C45.2117 18.4864 45.2343 20.9067 45.2372 21.4354V21.6475C45.2343 22.196 45.2089 24.7804 45.0053 27.4722L44.9827 27.769L44.9573 28.0631C44.8159 29.6804 44.6066 31.2865 44.2928 32.4684C44.0364 33.4296 43.5317 34.3065 42.8295 35.0112C42.1273 35.7159 41.2522 36.2236 40.2919 36.4834C37.012 37.3656 24.5455 37.4278 22.8179 37.4306H22.4164C21.5427 37.4306 17.9292 37.4137 14.1403 37.2836L13.6597 37.2666L13.4137 37.2553L12.9302 37.2355L12.4467 37.2157C9.30813 37.0772 6.31946 36.8538 4.94247 36.4806C3.98251 36.221 3.10761 35.7137 2.40542 35.0095C1.70324 34.3054 1.19843 33.429 0.941558 32.4684C0.627705 31.2893 0.41847 29.6804 0.277095 28.0631L0.254475 27.7662L0.231855 27.4722C0.0923111 25.5562 0.0149854 23.6363 0 21.7154L0 21.3676C0.005655 20.7597 0.028275 18.6588 0.18096 16.3403L0.200753 16.0491L0.209235 15.902L0.231855 15.608L0.29406 14.8728L0.322335 14.5788C0.458055 13.1113 0.658807 11.6862 0.944385 10.6146C1.20082 9.65339 1.70544 8.77648 2.40765 8.07179C3.10987 7.36709 3.98499 6.85938 4.9453 6.59956C6.32229 6.23198 9.31096 6.00578 12.4495 5.86441L12.9302 5.84461L13.4165 5.82765L13.6597 5.81917L14.1432 5.79937C16.8341 5.71278 19.5262 5.66471 22.2185 5.65517H22.7642V5.65234ZM18.096 14.7286V28.3515L29.8499 21.5429L18.096 14.7286Z" fill="#F06449"/>
</g>
<defs>
<clipPath id="clip0_533_2602">
<rect width="45.24" height="45.24" fill="white"/>
</clipPath>
</defs>
</svg>
